<?xml version="1.0" ?><!DOCTYPE svg  PUBLIC '-//W3C//DTD SVG 1.1//EN'  'http://www.w3.org/Graphics/SVG/1.1/DTD/svg11.dtd'><svg height="50px" version="1.1" viewBox="0 25 100 45" width="100px" xml:space="preserve" xmlns="http://www.w3.org/2000/svg" xmlns:xlink="http://www.w3.org/1999/xlink"><g id="Layer_30"><path clip-rule="evenodd" d="M2,35c0-3,3-3,21-3c0,0,9.018,0,12,0c11.998,0,9,3,15,3c5.998,0,3-3,15-3   c2.982,0,12,0,12,0c17.998,0,21,0,21,3v3c0,3-2.145,0.87-3.002,6C92,62,89,65,73.998,65C69.094,65,71,65,71,65s-12,0-15.002-9   C52.089,44.267,54.286,44,50,44s-2.089,0.267-6,12c-3,9-15.002,9-15.002,9s1.908,0-2.998,0C10.998,65,8,62,5,44   c-0.855-5.13-3-3-3-6V35L2,35z M59,39.5c0,0,0,13.5,9,19.5l0,0l0,0c0.682,0.469,1.615,0.296,2.086-0.384   c0.469-0.683,0.297-1.617-0.384-2.086c-3.328-2.291-5.402-5.833-6.585-9.627c-0.511-1.641-1.246-5.317-1.141-7.146   C61.991,39.676,62,39.588,62,39.5c0-0.829-0.672-1.5-1.5-1.5C59.671,38,59,38.671,59,39.5L59,39.5z M21.702,56.53   c-3.328-2.291-5.402-5.833-6.585-9.627c-0.511-1.641-1.246-5.317-1.141-7.146C13.991,39.676,14,39.588,14,39.5   c0-0.829-0.672-1.5-1.5-1.5c-0.829,0-1.502,0.671-1.502,1.5c0,0,0,13.5,9,19.5l0,0c0.684,0.469,1.617,0.296,2.088-0.384   C22.555,57.934,22.383,56.999,21.702,56.53z" fill-rule="evenodd"/></g></svg>
